<!DOCTYPE svg PUBLIC "-//W3C//DTD SVG 1.1//EN" "http://www.w3.org/Graphics/SVG/1.1/DTD/svg11.dtd">
<!-- Uploaded to: SVG Repo, www.svgrepo.com, Transformed by: SVG Repo Mixer Tools -->
<svg fill="#600C26" width="64px" height="64px" viewBox="-3.2 -3.2 38.40 38.40" version="1.1" xmlns="http://www.w3.org/2000/svg" stroke="#600C26" transform="matrix(1, 0, 0, 1, 0, 0)" stroke-width="1.7920000000000003">
<g id="SVGRepo_bgCarrier" stroke-width="0"/>
<g id="SVGRepo_tracerCarrier" stroke-linecap="round" stroke-linejoin="round" stroke="#E4C2B5" stroke-width="6.4"> <title>play</title> <path d="M5.92 24.096q0 1.088 0.928 1.728 0.512 0.288 1.088 0.288 0.448 0 0.896-0.224l16.16-8.064q0.48-0.256 0.8-0.736t0.288-1.088-0.288-1.056-0.8-0.736l-16.16-8.064q-0.448-0.224-0.896-0.224-0.544 0-1.088 0.288-0.928 0.608-0.928 1.728v16.16z"/> </g>
<g id="SVGRepo_iconCarrier"> <title>play</title> <path d="M5.92 24.096q0 1.088 0.928 1.728 0.512 0.288 1.088 0.288 0.448 0 0.896-0.224l16.16-8.064q0.48-0.256 0.8-0.736t0.288-1.088-0.288-1.056-0.8-0.736l-16.16-8.064q-0.448-0.224-0.896-0.224-0.544 0-1.088 0.288-0.928 0.608-0.928 1.728v16.16z"/> </g>
</svg>